<svg xmlns="http://www.w3.org/2000/svg" xmlns:xlink="http://www.w3.org/1999/xlink"><symbol id="icon-address" viewBox="0 0 13 16"><g fill="none"><path fill-rule="evenodd" clip-rule="evenodd" d="M11.8 6.5c0 2.33-1.367 4.417-2.912 6.01A17.54 17.54 0 0 1 6.5 14.558a17.54 17.54 0 0 1-2.388-2.046C2.567 10.917 1.2 8.83 1.2 6.5a5.3 5.3 0 1 1 10.6 0Zm1.2 0c0 5.59-6.5 9.5-6.5 9.5S0 12.09 0 6.5a6.5 6.5 0 0 1 13 0Zm-4.2 0a2.3 2.3 0 1 1-4.6 0 2.3 2.3 0 0 1 4.6 0Zm1.2 0a3.5 3.5 0 1 1-7 0 3.5 3.5 0 0 1 7 0Z" fill="#7859CF"/></g></symbol><symbol id="icon-arrow-left" viewBox="0 0 11 20"><g fill="none"><path clip-rule="evenodd" d="M9.717 0 11 1.32 2.567 10 11 18.68 9.717 20 0 10 9.717 0Z"/></g></symbol><symbol id="icon-arrow-right" viewBox="0 0 11 20"><g fill="none"><path clip-rule="evenodd" d="M1.283 0 0 1.32 8.433 10 0 18.68 1.283 20 11 10 1.283 0Z"/></g></symbol><symbol id="icon-basket" viewBox="0 0 16 16"><g fill="none"><path fill-rule="evenodd" clip-rule="evenodd" d="m5.66 3.875.234 2.792h4.213l.232-2.792a2.347 2.347 0 1 0-4.678 0Zm5.784 2.792.224-2.68a3.68 3.68 0 1 0-7.336 0l.224 2.68H0L.19 8l.816 5.71A2.667 2.667 0 0 0 3.646 16h8.708a2.667 2.667 0 0 0 2.64-2.29L15.81 8 16 6.667h-4.556ZM11.334 8h-.054l-.222 2.667h3.024L14.462 8h-3.129ZM9.941 8H6.058l.222 2.667h3.44L9.942 8ZM4.72 8H1.537l.381 2.667h3.024L4.72 8Zm1.893 6.667L6.391 12H9.61l-.222 2.667H6.613ZM10.947 12l-.222 2.667h1.629c.663 0 1.226-.488 1.32-1.145L13.89 12h-2.944Zm-5.894 0 .222 2.667H3.646a1.333 1.333 0 0 1-1.32-1.145L2.11 12h2.944Z" fill="#333"/></g></symbol><symbol id="icon-ok" viewBox="0 0 20 20"><g fill="none"><path fill-rule="evenodd" clip-rule="evenodd" d="M1.4 1.4C0 2.812 0 5.074 0 9.6v.914c0 4.456 0 6.698 1.4 8.086C2.812 20 5.074 20 9.6 20h.913c4.457 0 6.699 0 8.087-1.4 1.4-1.412 1.4-3.674 1.4-8.2v-.913c0-4.457 0-6.699-1.4-8.087C17.188 0 14.926 0 10.4 0h-.914C5.03 0 2.788 0 1.4 1.4Zm8.62 8.797a3.034 3.034 0 0 0 3.028-3.028 3.038 3.038 0 0 0-6.075 0 3.038 3.038 0 0 0 3.046 3.028Zm0-4.28c.688 0 1.25.563 1.25 1.252 0 .689-.562 1.251-1.25 1.251-.69 0-1.252-.562-1.252-1.251-.018-.69.544-1.251 1.251-1.251Zm1.214 6.764a5.729 5.729 0 0 0 1.76-.725.883.883 0 0 0 .271-1.233.883.883 0 0 0-1.233-.272 3.85 3.85 0 0 1-4.08 0 .903.903 0 0 0-1.233.272.904.904 0 0 0 .308 1.215c.544.345 1.143.58 1.76.725L7.1 14.35a.886.886 0 0 0 0 1.251.861.861 0 0 0 .635.254.94.94 0 0 0 .634-.254l1.668-1.668 1.669 1.668a.887.887 0 0 0 1.251 0 .887.887 0 0 0 0-1.251l-1.723-1.668Z" fill="#BDBDBD"/></g></symbol><symbol id="icon-phone" viewBox="0 0 13 16"><g fill="none"><path fill-rule="evenodd" clip-rule="evenodd" d="M1.478 1.49C.407 2.09-.173 3.236.046 4.32l.358 1.774c.926 3.123 2.5 5.769 4.825 8.109l1.405 1.188c.857.726 2.17.811 3.24.211l2.23-1.249c.873-.488 1.162-1.534.626-2.259l-1.935-2.613c-.516-.697-1.588-.812-2.366-.253l-1.375.988c-1.228-.88-2.008-2.19-2.179-3.662l1.57-.662c.887-.374 1.32-1.333.957-2.114L6.037.845C5.658.032 4.58-.247 3.707.241l-2.23 1.25Zm-.196 2.528c-.119-.59.197-1.216.782-1.543l2.23-1.25c.217-.121.487-.051.582.152L6.24 4.309c.091.196-.017.435-.239.529l-2.43 1.025.016.416c.082 2.126 1.212 4.025 3.068 5.157l.364.221 2.13-1.53c.194-.14.462-.11.591.064l1.935 2.613c.134.181.061.443-.157.565l-2.23 1.249c-.583.327-1.3.28-1.767-.115l-1.405-1.189C4.39 11.62 2.29 8.091 1.641 5.792l-.359-1.774Z" fill="#7859CF"/></g></symbol><symbol id="icon-pinterest" viewBox="0 0 22 22"><g fill="none"><path d="M11 0C4.925 0 0 4.925 0 11c0 4.66 2.9 8.644 6.991 10.247-.096-.87-.183-2.21.038-3.16.2-.858 1.29-5.467 1.29-5.467s-.329-.659-.329-1.633c0-1.53.887-2.671 1.99-2.671.94 0 1.392.704 1.392 1.549 0 .944-.6 2.355-.91 3.662-.26 1.095.549 1.988 1.628 1.988 1.955 0 3.458-2.061 3.458-5.037 0-2.634-1.892-4.475-4.595-4.475-3.13 0-4.966 2.347-4.966 4.774 0 .945.364 1.959.818 2.51.09.109.103.204.076.315-.083.348-.269 1.095-.305 1.248-.048.201-.16.244-.368.147-1.374-.64-2.233-2.648-2.233-4.261 0-3.47 2.521-6.657 7.268-6.657 3.816 0 6.782 2.72 6.782 6.353 0 3.791-2.39 6.842-5.708 6.842-1.115 0-2.163-.58-2.522-1.263l-.685 2.615c-.248.955-.919 2.153-1.367 2.883C8.773 21.83 9.866 22 11 22c6.075 0 11-4.925 11-11S17.075 0 11 0Z" fill="#BDBDBD"/></g></symbol><symbol id="icon-user" viewBox="0 0 16 16"><g fill="none"><path fill-rule="evenodd" clip-rule="evenodd" d="M10.667 4a2.667 2.667 0 1 1-5.334 0 2.667 2.667 0 0 1 5.334 0ZM12 4a4 4 0 1 1-8 0 4 4 0 0 1 8 0Zm-8.803 8.31C4.437 11.277 6.16 10.667 8 10.667s3.564.61 4.803 1.643c1.232 1.027 1.864 2.362 1.864 3.69H16c0-1.768-.843-3.464-2.343-4.714-1.5-1.25-3.535-1.953-5.657-1.953s-4.157.703-5.657 1.953S0 14.232 0 16h1.333c0-1.328.632-2.663 1.864-3.69Z" fill="#333"/></g></symbol><symbol id="icon-vk" viewBox="0 0 20 20"><g fill="none"><path fill-rule="evenodd" clip-rule="evenodd" d="M1.406 1.406C0 2.812 0 5.074 0 9.6v.8c0 4.525 0 6.788 1.406 8.194C2.812 20 5.074 20 9.6 20h.8c4.525 0 6.788 0 8.194-1.406C20 17.188 20 14.925 20 10.4v-.8c0-4.526 0-6.788-1.406-8.194C17.188 0 14.925 0 10.4 0h-.8C5.074 0 2.812 0 1.406 1.406Zm1.969 4.677c.108 5.2 2.708 8.325 7.267 8.325h.258v-2.975c1.675.167 2.942 1.392 3.45 2.975h2.367c-.65-2.366-2.359-3.675-3.425-4.175 1.066-.616 2.566-2.116 2.925-4.15h-2.15c-.467 1.65-1.85 3.15-3.167 3.292V6.083H8.75v5.767c-1.333-.333-3.017-1.95-3.092-5.767H3.375Z" fill="#BDBDBD"/></g></symbol><symbol id="logo-footer-mobile" viewBox="0 0 82 36"><g fill="none"><path d="M74.08 26.336c-1.328 0-2.56-.208-3.696-.624a8.824 8.824 0 0 1-2.952-1.824 8.564 8.564 0 0 1-1.92-2.76c-.464-1.072-.696-2.248-.696-3.528 0-1.28.232-2.448.696-3.504a8.324 8.324 0 0 1 1.944-2.784 8.52 8.52 0 0 1 2.952-1.8c1.152-.432 2.408-.648 3.768-.648 1.584 0 3 .264 4.248.792 1.248.528 2.28 1.288 3.096 2.28l-3.024 2.736c-.576-.624-1.2-1.088-1.872-1.392-.656-.32-1.392-.48-2.208-.48-.72 0-1.376.112-1.968.336a4.063 4.063 0 0 0-1.512.984c-.416.416-.744.92-.984 1.512-.224.576-.336 1.232-.336 1.968 0 .704.112 1.352.336 1.944.24.592.568 1.104.984 1.536.416.416.912.744 1.488.984.592.224 1.24.336 1.944.336s1.392-.112 2.064-.336c.672-.24 1.352-.64 2.04-1.2l2.664 3.336c-.96.688-2.072 1.216-3.336 1.584a13.268 13.268 0 0 1-3.72.552Zm2.856-2.76V17.24h4.2v6.96l-4.2-.624Z" fill="#333"/><path fill-rule="evenodd" clip-rule="evenodd" d="M58 18c0 2.874-.599 5.59-1.663 8H43c2.463-3.772 5-8.34 5-13C48 7.002 43.938 1.953 38.416.453A14.35 14.35 0 0 1 42 0c8.837 0 16 8.059 16 18Zm-14-5a9 9 0 0 0-9-9c-6.65 0-9 8.507-9 14 0 9.941 7.163 18 16 18 4.739 0 8.996-2.318 11.926-6H35c.352-.449.72-.91 1.099-1.386C39.616 24.201 44 18.7 44 13Z" fill="#7859CF"/><path d="M1.852 26V9.2h7.944c1.856 0 3.488.344 4.896 1.032 1.408.688 2.504 1.656 3.288 2.904.8 1.248 1.2 2.736 1.2 4.464 0 1.712-.4 3.2-1.2 4.464-.784 1.248-1.88 2.216-3.288 2.904-1.408.688-3.04 1.032-4.896 1.032H1.852Zm4.752-3.792h3c.96 0 1.792-.176 2.496-.528a4.013 4.013 0 0 0 1.68-1.584c.4-.704.6-1.536.6-2.496 0-.976-.2-1.808-.6-2.496a3.863 3.863 0 0 0-1.68-1.56c-.704-.368-1.536-.552-2.496-.552h-3v9.216Z" fill="#333"/></g></symbol><symbol id="logo-footer-tab-desk" viewBox="0 0 170 36"><g fill="none"><path d="M140.08 26.336c-1.328 0-2.56-.208-3.696-.624a8.824 8.824 0 0 1-2.952-1.824 8.564 8.564 0 0 1-1.92-2.76c-.464-1.072-.696-2.248-.696-3.528 0-1.28.232-2.448.696-3.504a8.324 8.324 0 0 1 1.944-2.784 8.52 8.52 0 0 1 2.952-1.8c1.152-.432 2.408-.648 3.768-.648 1.584 0 3 .264 4.248.792 1.248.528 2.28 1.288 3.096 2.28l-3.024 2.736c-.576-.624-1.2-1.088-1.872-1.392-.656-.32-1.392-.48-2.208-.48-.72 0-1.376.112-1.968.336a4.063 4.063 0 0 0-1.512.984c-.416.416-.744.92-.984 1.512-.224.576-.336 1.232-.336 1.968 0 .704.112 1.352.336 1.944.24.592.568 1.104.984 1.536.416.416.912.744 1.488.984.592.224 1.24.336 1.944.336s1.392-.112 2.064-.336c.672-.24 1.352-.64 2.04-1.2l2.664 3.336c-.96.688-2.072 1.216-3.336 1.584a13.268 13.268 0 0 1-3.72.552Zm2.856-2.76V17.24h4.2v6.96l-4.2-.624Zm16.165 2.76c-1.344 0-2.584-.216-3.72-.648a9.096 9.096 0 0 1-2.976-1.824 8.657 8.657 0 0 1-1.944-2.784c-.464-1.056-.696-2.216-.696-3.48 0-1.264.232-2.424.696-3.48a8.39 8.39 0 0 1 1.944-2.76 8.891 8.891 0 0 1 2.976-1.848c1.136-.432 2.376-.648 3.72-.648 1.36 0 2.6.216 3.72.648a8.63 8.63 0 0 1 2.952 1.848 8.39 8.39 0 0 1 1.944 2.76c.48 1.056.72 2.216.72 3.48 0 1.264-.24 2.432-.72 3.504a8.39 8.39 0 0 1-1.944 2.76 8.824 8.824 0 0 1-2.952 1.824c-1.12.432-2.36.648-3.72.648Zm0-3.936a4.62 4.62 0 0 0 1.776-.336 4.064 4.064 0 0 0 1.44-.96c.416-.432.736-.944.96-1.536.24-.592.36-1.248.36-1.968 0-.736-.12-1.392-.36-1.968a4.216 4.216 0 0 0-.96-1.512c-.4-.432-.88-.76-1.44-.984a4.62 4.62 0 0 0-1.776-.336c-.64 0-1.24.112-1.8.336a4.202 4.202 0 0 0-1.44.984 4.7 4.7 0 0 0-.96 1.512c-.224.576-.336 1.232-.336 1.968 0 .72.112 1.376.336 1.968a5 5 0 0 0 .96 1.536 4.37 4.37 0 0 0 1.44.96c.56.224 1.16.336 1.8.336Z" fill="#333"/><path fill-rule="evenodd" clip-rule="evenodd" d="M124 18c0 2.874-.599 5.59-1.663 8H109c2.463-3.772 5-8.34 5-13 0-5.998-4.062-11.047-9.584-12.547A14.348 14.348 0 0 1 108 0c8.837 0 16 8.059 16 18Zm-14-5a9 9 0 0 0-9-9c-6.65 0-9 8.507-9 14 0 9.941 7.163 18 16 18 4.739 0 8.996-2.318 11.926-6H101c.352-.449.72-.91 1.099-1.386C105.616 24.201 110 18.7 110 13Z" fill="#7859CF"/><path d="M2.65 26V9.2h7.945c1.856 0 3.488.344 4.896 1.032 1.408.688 2.504 1.656 3.288 2.904.8 1.248 1.2 2.736 1.2 4.464 0 1.712-.4 3.2-1.2 4.464-.784 1.248-1.88 2.216-3.288 2.904-1.408.688-3.04 1.032-4.896 1.032H2.65Zm4.753-3.792h3c.96 0 1.792-.176 2.496-.528a4.013 4.013 0 0 0 1.68-1.584c.4-.704.6-1.536.6-2.496 0-.976-.2-1.808-.6-2.496a3.863 3.863 0 0 0-1.68-1.56c-.704-.368-1.536-.552-2.496-.552h-3v9.216ZM22.959 26V9.2h7.68c1.536 0 2.856.248 3.96.744 1.12.496 1.984 1.216 2.592 2.16.608.928.912 2.032.912 3.312 0 1.264-.304 2.36-.912 3.288-.608.912-1.472 1.616-2.592 2.112-1.104.48-2.424.72-3.96.72h-5.04l2.112-1.992V26h-4.752Zm10.392 0-4.176-6.12h5.064l4.2 6.12H33.35Zm-5.64-5.952-2.112-2.184h4.752c.992 0 1.728-.216 2.208-.648.496-.432.744-1.032.744-1.8 0-.784-.248-1.392-.744-1.824-.48-.432-1.216-.648-2.208-.648h-4.752l2.112-2.184v9.288ZM41.204 26V9.2h4.752V26h-4.752Zm8.613 0V9.2h3.912l9.264 11.184h-1.848V9.2h4.656V26H61.89l-9.264-11.184h1.848V26h-4.656Zm24.064-3.72-.264-5.328L80.841 9.2h5.232l-7.2 7.8-2.64 2.76-2.352 2.52ZM69.633 26V9.2h4.704V26h-4.704Zm11.28 0-5.472-6.936 3.096-3.312L86.433 26h-5.52Z" fill="#333"/></g></symbol><symbol id="logo-heder-desktop" viewBox="0 0 170 36"><g fill="none"><path d="M140.08 26.336c-1.328 0-2.56-.208-3.696-.624a8.824 8.824 0 0 1-2.952-1.824 8.564 8.564 0 0 1-1.92-2.76c-.464-1.072-.696-2.248-.696-3.528 0-1.28.232-2.448.696-3.504a8.324 8.324 0 0 1 1.944-2.784 8.52 8.52 0 0 1 2.952-1.8c1.152-.432 2.408-.648 3.768-.648 1.584 0 3 .264 4.248.792 1.248.528 2.28 1.288 3.096 2.28l-3.024 2.736c-.576-.624-1.2-1.088-1.872-1.392-.656-.32-1.392-.48-2.208-.48-.72 0-1.376.112-1.968.336a4.063 4.063 0 0 0-1.512.984c-.416.416-.744.92-.984 1.512-.224.576-.336 1.232-.336 1.968 0 .704.112 1.352.336 1.944.24.592.568 1.104.984 1.536.416.416.912.744 1.488.984.592.224 1.24.336 1.944.336s1.392-.112 2.064-.336c.672-.24 1.352-.64 2.04-1.2l2.664 3.336c-.96.688-2.072 1.216-3.336 1.584a13.268 13.268 0 0 1-3.72.552Zm2.856-2.76V17.24h4.2v6.96l-4.2-.624Zm16.165 2.76c-1.344 0-2.584-.216-3.72-.648a9.096 9.096 0 0 1-2.976-1.824 8.657 8.657 0 0 1-1.944-2.784c-.464-1.056-.696-2.216-.696-3.48 0-1.264.232-2.424.696-3.48a8.39 8.39 0 0 1 1.944-2.76 8.891 8.891 0 0 1 2.976-1.848c1.136-.432 2.376-.648 3.72-.648 1.36 0 2.6.216 3.72.648a8.63 8.63 0 0 1 2.952 1.848 8.39 8.39 0 0 1 1.944 2.76c.48 1.056.72 2.216.72 3.48 0 1.264-.24 2.432-.72 3.504a8.39 8.39 0 0 1-1.944 2.76 8.824 8.824 0 0 1-2.952 1.824c-1.12.432-2.36.648-3.72.648Zm0-3.936a4.62 4.62 0 0 0 1.776-.336 4.064 4.064 0 0 0 1.44-.96c.416-.432.736-.944.96-1.536.24-.592.36-1.248.36-1.968 0-.736-.12-1.392-.36-1.968a4.216 4.216 0 0 0-.96-1.512c-.4-.432-.88-.76-1.44-.984a4.62 4.62 0 0 0-1.776-.336c-.64 0-1.24.112-1.8.336a4.202 4.202 0 0 0-1.44.984 4.7 4.7 0 0 0-.96 1.512c-.224.576-.336 1.232-.336 1.968 0 .72.112 1.376.336 1.968a5 5 0 0 0 .96 1.536 4.37 4.37 0 0 0 1.44.96c.56.224 1.16.336 1.8.336Z" fill="#333"/><path fill-rule="evenodd" clip-rule="evenodd" d="M124 18c0 2.874-.599 5.59-1.663 8H109c2.463-3.772 5-8.34 5-13 0-5.998-4.062-11.047-9.584-12.547A14.348 14.348 0 0 1 108 0c8.837 0 16 8.059 16 18Zm-14-5a9 9 0 0 0-9-9c-6.65 0-9 8.507-9 14 0 9.941 7.163 18 16 18 4.739 0 8.996-2.318 11.926-6H101c.352-.449.72-.91 1.099-1.386C105.616 24.201 110 18.7 110 13Z" fill="#7859CF"/><path d="M2.65 26V9.2h7.945c1.856 0 3.488.344 4.896 1.032 1.408.688 2.504 1.656 3.288 2.904.8 1.248 1.2 2.736 1.2 4.464 0 1.712-.4 3.2-1.2 4.464-.784 1.248-1.88 2.216-3.288 2.904-1.408.688-3.04 1.032-4.896 1.032H2.65Zm4.753-3.792h3c.96 0 1.792-.176 2.496-.528a4.013 4.013 0 0 0 1.68-1.584c.4-.704.6-1.536.6-2.496 0-.976-.2-1.808-.6-2.496a3.863 3.863 0 0 0-1.68-1.56c-.704-.368-1.536-.552-2.496-.552h-3v9.216ZM22.959 26V9.2h7.68c1.536 0 2.856.248 3.96.744 1.12.496 1.984 1.216 2.592 2.16.608.928.912 2.032.912 3.312 0 1.264-.304 2.36-.912 3.288-.608.912-1.472 1.616-2.592 2.112-1.104.48-2.424.72-3.96.72h-5.04l2.112-1.992V26h-4.752Zm10.392 0-4.176-6.12h5.064l4.2 6.12H33.35Zm-5.64-5.952-2.112-2.184h4.752c.992 0 1.728-.216 2.208-.648.496-.432.744-1.032.744-1.8 0-.784-.248-1.392-.744-1.824-.48-.432-1.216-.648-2.208-.648h-4.752l2.112-2.184v9.288ZM41.204 26V9.2h4.752V26h-4.752Zm8.613 0V9.2h3.912l9.264 11.184h-1.848V9.2h4.656V26H61.89l-9.264-11.184h1.848V26h-4.656Zm24.064-3.72-.264-5.328L80.841 9.2h5.232l-7.2 7.8-2.64 2.76-2.352 2.52ZM69.633 26V9.2h4.704V26h-4.704Zm11.28 0-5.472-6.936 3.096-3.312L86.433 26h-5.52Z" fill="#333"/></g></symbol><symbol id="logo-heder-mobile" viewBox="0 0 32 36"><g fill="none"><path fill-rule="evenodd" clip-rule="evenodd" d="M32 18c0 2.874-.599 5.59-1.663 8H17c2.463-3.772 5-8.34 5-13C22 7.002 17.939 1.953 12.416.453A14.35 14.35 0 0 1 16 0c8.837 0 16 8.059 16 18Zm-14-5a9 9 0 0 0-9-9c-6.65 0-9 8.507-9 14 0 9.941 7.163 18 16 18 4.739 0 8.996-2.318 11.926-6H9c.352-.449.72-.91 1.099-1.386C13.616 24.201 18 18.7 18 13Z" fill="#7859CF"/></g></symbol><symbol id="logo-heder-tablet" viewBox="0 0 82 36"><g fill="none"><path d="M74.08 26.336c-1.328 0-2.56-.208-3.696-.624a8.824 8.824 0 0 1-2.952-1.824 8.564 8.564 0 0 1-1.92-2.76c-.464-1.072-.696-2.248-.696-3.528 0-1.28.232-2.448.696-3.504a8.324 8.324 0 0 1 1.944-2.784 8.52 8.52 0 0 1 2.952-1.8c1.152-.432 2.408-.648 3.768-.648 1.584 0 3 .264 4.248.792 1.248.528 2.28 1.288 3.096 2.28l-3.024 2.736c-.576-.624-1.2-1.088-1.872-1.392-.656-.32-1.392-.48-2.208-.48-.72 0-1.376.112-1.968.336a4.063 4.063 0 0 0-1.512.984c-.416.416-.744.92-.984 1.512-.224.576-.336 1.232-.336 1.968 0 .704.112 1.352.336 1.944.24.592.568 1.104.984 1.536.416.416.912.744 1.488.984.592.224 1.24.336 1.944.336s1.392-.112 2.064-.336c.672-.24 1.352-.64 2.04-1.2l2.664 3.336c-.96.688-2.072 1.216-3.336 1.584a13.268 13.268 0 0 1-3.72.552Zm2.856-2.76V17.24h4.2v6.96l-4.2-.624Z" fill="#333"/><path fill-rule="evenodd" clip-rule="evenodd" d="M58 18c0 2.874-.599 5.59-1.663 8H43c2.463-3.772 5-8.34 5-13C48 7.002 43.938 1.953 38.416.453A14.35 14.35 0 0 1 42 0c8.837 0 16 8.059 16 18Zm-14-5a9 9 0 0 0-9-9c-6.65 0-9 8.507-9 14 0 9.941 7.163 18 16 18 4.739 0 8.996-2.318 11.926-6H35c.352-.449.72-.91 1.099-1.386C39.616 24.201 44 18.7 44 13Z" fill="#7859CF"/><path d="M1.852 26V9.2h7.944c1.856 0 3.488.344 4.896 1.032 1.408.688 2.504 1.656 3.288 2.904.8 1.248 1.2 2.736 1.2 4.464 0 1.712-.4 3.2-1.2 4.464-.784 1.248-1.88 2.216-3.288 2.904-1.408.688-3.04 1.032-4.896 1.032H1.852Zm4.752-3.792h3c.96 0 1.792-.176 2.496-.528a4.013 4.013 0 0 0 1.68-1.584c.4-.704.6-1.536.6-2.496 0-.976-.2-1.808-.6-2.496a3.863 3.863 0 0 0-1.68-1.56c-.704-.368-1.536-.552-2.496-.552h-3v9.216Z" fill="#333"/></g></symbol><symbol id="logo-htmlacademy" viewBox="0 0 12 16"><g fill="none"><path d="M11.215 5.754 5.972 2.5v-.001H5.97L.785 5.75V1.407L6 .83l5.215.576v4.347Zm-.004.576L9.126 7.623 5.985 5.656l-.006.573 2.685 1.68-.463.288-2.216-1.388-.006.572 1.75 1.095-.413.291-.01.007-1.321-.82-.006.572.867.538-.883.558L.796 6.39l5.175-3.275 5.24 3.216Zm.004 5.441L6 15.038.785 11.771V7.025l5.193 3.255.008.59-3.562-2.233-.005.573 3.576 2.263.01.605-3.576-2.24-.005.573L6 12.675l3.606-2.272V7.957l1.61-1.011v4.825ZM6 0 0 .662v11.58L6 16l6-3.759V.662L6 0Z" fill="#BDBDBD"/></g></symbol></svg>